<?xml version="1.0" encoding="utf-8"?>
<!-- Generator: Adobe Illustrator 25.0.1, SVG Export Plug-In . SVG Version: 6.00 Build 0)  -->
<svg version="1.1" id="Слой_2" xmlns="http://www.w3.org/2000/svg" xmlns:xlink="http://www.w3.org/1999/xlink" x="0px" y="0px"
	 viewBox="0 0 512 512" style="enable-background:new 0 0 512 512;" xml:space="preserve">
<style type="text/css">
	.st0{fill:#1774D3;}
	.st1{fill:#FFFFFF;}
	.st2{fill:#FFCD3A;}
	.st3{opacity:0.5;}
</style>
<path class="st0" d="M176.98425,198h284.03149C476.47104,198,489,185.47102,489,170.01575V70.98425
	C489,55.52898,476.47104,43,461.01575,43H176.98425C161.52898,43,149,55.52898,149,70.98425v99.03149
	C149,185.47102,161.52898,198,176.98425,198z"/>
<rect x="170" y="64" class="st1" width="301" height="126"/>
<path class="st2" d="M452.85828,493H60.14173C37.97206,493,20,475.02792,20,452.85828V60.14173C20,37.97206,37.97206,20,60.14173,20
	h110.65481c6.54108,0,12.50163,3.75394,15.32741,9.65313l31.22849,65.19374c2.82578,5.89919,8.78633,9.65313,15.32741,9.65313
	H459.8996C478.18045,104.5,493,119.31955,493,137.60039v315.25787C493,475.02792,475.02792,493,452.85828,493z"/>
<g>
	<path class="st0" d="M114.85156,337.58594v-116.25h120.54688v27.89062h-85v21.40625h81.09375v26.95312h-81.09375v40H114.85156z"/>
	<path class="st0" d="M290.63281,300.08594c0.46875,5.20898,1.53516,8.64648,3.20312,10.3125
		c1.66602,1.61523,5.75391,2.42188,12.26562,2.42188h45.625c9.375,0,14.0625-3.25391,14.0625-9.76562
		c0-4.16602-1.84961-7.00391-5.54688-8.51562c-3.64648-1.5625-12.47461-2.34375-26.48438-2.34375h-21.875
		c-16.98047,0-29.48047-0.96289-37.5-2.89062c-7.96875-1.92578-13.28125-5.51953-15.9375-10.78125
		c-2.24023-4.32227-3.35938-11.79688-3.35938-22.42188c0-14.53125,3.51562-24.16602,10.54688-28.90625
		c7.08203-4.73877,19.00977-7.10938,35.78125-7.10938h50c17.55078,0,29.42578,2.44873,35.625,7.34375
		c6.19727,4.89648,9.29688,13.54248,9.29688,25.9375v4.21875h-35.54688c0-4.58252-1.06836-7.62939-3.20312-9.14062
		c-2.13672-1.5625-6.92773-2.34375-14.375-2.34375h-38.04688c-9.6875,0-14.53125,3.07373-14.53125,9.21875
		c0,6.14648,3.38477,9.34961,10.15625,9.60938c6.82227,0.20898,13.22852,0.3125,19.21875,0.3125h24.14062
		c16.50977,0,28.77539,1.09375,36.79688,3.28125c8.07227,2.1875,13.59375,6.04297,16.5625,11.5625
		c2.55078,4.74023,3.82812,12.16211,3.82812,22.26562c0,10.26172-1.32812,17.78711-3.98438,22.57812
		c-2.91797,5.20898-8.23047,8.82812-15.9375,10.85938c-7.65625,2.03125-19.42773,3.04688-35.3125,3.04688h-46.48438
		c-17.1875,0-28.90625-2.29102-35.15625-6.875c-6.25-4.58203-9.375-12.52539-9.375-23.82812v-8.04688H290.63281z"/>
</g>
<g class="st3">
	<path class="st0" d="M167.54297,430.33594l34.375-58.125h9.80469l34.375,58.125h-8.82812l-7.38281-12.42188h-46.13281
		l-7.38281,12.42188H167.54297z M187.42578,411.50781h38.78906l-19.41406-32.92969L187.42578,411.50781z"/>
	<path class="st0" d="M255.04297,372.21094h48.82812c5.28613,0,9.15332,1.12012,11.60156,3.35938
		c2.44727,2.24023,3.67188,6.32812,3.67188,12.26562v2.38281c0,6.64062-1.30273,11.15918-3.90625,13.55469
		c-2.60449,2.37012-7.30469,3.55469-14.10156,3.55469h-38.24219v23.00781h-7.85156V372.21094z M262.89453,378.61719v22.30469
		h38.20312c6.79688,0,10.19531-2.75977,10.19531-8.28125v-5.50781c0-3.33301-0.78125-5.58594-2.34375-6.75781
		c-1.53711-1.17188-4.28418-1.75781-8.24219-1.75781H262.89453z"/>
	<path class="st0" d="M330.39453,372.21094h7.85156v58.125h-7.85156V372.21094z"/>
</g>
</svg>
